<svg width="60" height="25" viewBox="0 0 60 25" fill="none" xmlns="http://www.w3.org/2000/svg">
<path d="M0.521484 4.49431C0.521484 3.28933 1.49832 2.3125 2.7033 2.3125H4.88512C6.09011 2.3125 7.06694 3.28933 7.06694 4.49432V15.4034C7.06694 16.6084 8.04377 17.5852 9.24876 17.5852H24.5215C25.7265 17.5852 26.7033 16.6084 26.7033 15.4034V4.49432C26.7033 3.28933 27.6801 2.3125 28.8851 2.3125H31.0669C32.2719 2.3125 33.2488 3.28933 33.2488 4.49431V18.6761C33.2488 21.6886 30.8067 24.1307 27.7942 24.1307H5.97602C2.96356 24.1307 0.521484 21.6886 0.521484 18.6761V4.49431Z" fill="#FF0033"/>
<path d="M8.15625 3.40554C8.15625 1.59806 9.6215 0.132812 11.429 0.132812H22.3381C24.1455 0.132812 25.6108 1.59806 25.6108 3.40554V15.4055C25.6108 16.008 25.1224 16.4964 24.5199 16.4964H9.24716C8.64467 16.4964 8.15625 16.008 8.15625 15.4055V3.40554Z" fill="#FF0033"/>
<path d="M26.7051 4.49431C26.7051 3.28933 27.6819 2.3125 28.8869 2.3125H31.0687C32.2737 2.3125 33.2505 3.28933 33.2505 4.49432V15.4034C33.2505 16.6084 34.2274 17.5852 35.4323 17.5852H50.7051C51.9101 17.5852 52.8869 16.6084 52.8869 15.4034V4.49432C52.8869 3.28933 53.8637 2.3125 55.0687 2.3125H57.2505C58.4555 2.3125 59.4324 3.28933 59.4324 4.49431V18.6761C59.4324 21.6886 56.9903 24.1307 53.9778 24.1307H32.1596C29.1472 24.1307 26.7051 21.6886 26.7051 18.6761V4.49431Z" fill="#FF0033"/>
<path d="M34.3438 3.40554C34.3438 1.59806 35.809 0.132812 37.6165 0.132812H48.5256C50.333 0.132812 51.7983 1.59806 51.7983 3.40554V15.4055C51.7983 16.008 51.3099 16.4964 50.7074 16.4964H35.4347C34.8322 16.4964 34.3438 16.008 34.3438 15.4055V3.40554Z" fill="#FF0033"/>
</svg>
